<svg xmlns="http://www.w3.org/2000/svg" viewBox="0 0 40 40" width="40" height="40" role="img" aria-label="Cloudgate LMS">
  <defs>
    <linearGradient id="cgGrad" x1="0" y1="0" x2="40" y2="40" gradientUnits="userSpaceOnUse">
      <stop offset="0" stop-color="#2dd4bf"/>
      <stop offset="1" stop-color="#0f766e"/>
    </linearGradient>
  </defs>
  <rect width="40" height="40" rx="13" fill="url(#cgGrad)"/>
  <g fill="none" stroke="#ffffff" stroke-width="2.2" stroke-linecap="round" stroke-linejoin="round">
    <path d="M20 14c-2.2-1.6-4.8-2.2-7.6-2.2-.9 0-1.4.5-1.4 1.3v12.2c0 .8.6 1.2 1.5 1.2 2.6 0 5.3.6 7.5 2"/>
    <path d="M20 14c2.2-1.6 4.8-2.2 7.6-2.2.9 0 1.4.5 1.4 1.3v12.2c0 .8-.6 1.2-1.5 1.2-2.6 0-5.3.6-7.5 2"/>
    <path d="M20 14v14.5"/>
  </g>
  <circle cx="20" cy="9.6" r="2.1" fill="#fb7185"/>
</svg>
