<svg xmlns="http://www.w3.org/2000/svg" xmlns:xlink="http://www.w3.org/1999/xlink" viewBox="0 0 541.38 275.48"><defs><style>.cls-1{fill:#1b1f3b;}.cls-2{fill:url(#linear-gradient);}.cls-3{fill:#3f5efb;}</style><linearGradient id="linear-gradient" x1="222.89" y1="123.83" x2="312.49" y2="34.23" gradientUnits="userSpaceOnUse"><stop offset="0" stop-color="#3f5efb"/><stop offset="1" stop-color="#ec2f4b"/></linearGradient></defs><title>Asset 10</title><g id="Layer_2" data-name="Layer 2"><g id="Layer_1-2" data-name="Layer 1"><path class="cls-1" d="M40.24,230.8a17,17,0,0,1-6.7,1.25,14.44,14.44,0,0,1-9.35-3.33,14.26,14.26,0,0,1-4.66-11.07,14.56,14.56,0,0,1,1.81-7.32,13.11,13.11,0,0,1,5-5,14.38,14.38,0,0,1,7.19-1.81A17.1,17.1,0,0,1,40,204.64l.06,0a9.34,9.34,0,0,0,10.23-1.92l7-7.12a31,31,0,0,0-10.57-7.19A34.46,34.46,0,0,0,33.54,186a35.35,35.35,0,0,0-17.14,4.13A31.92,31.92,0,0,0,4.32,234.05a30.47,30.47,0,0,0,12,11.39,35.51,35.51,0,0,0,17.15,4.13A33.64,33.64,0,0,0,46.87,247a33.6,33.6,0,0,0,10.83-7.57L45.31,227.16A14.22,14.22,0,0,1,40.24,230.8Z"/><path class="cls-1" d="M62.07,248.19H81.34v-69A12.38,12.38,0,0,0,69,166.82H62.07Z"/><path class="cls-1" d="M138.6,190.12a37,37,0,0,0-34.11.06,31.47,31.47,0,0,0-11.82,11.33,30.29,30.29,0,0,0-4.32,16,30.87,30.87,0,0,0,4.38,16.27,32,32,0,0,0,11.89,11.51,36.13,36.13,0,0,0,34,0,32.2,32.2,0,0,0,11.89-11.45,30.78,30.78,0,0,0,4.38-16.33,30.34,30.34,0,0,0-4.38-16.09A31.21,31.21,0,0,0,138.6,190.12Zm-5,35.1a11.68,11.68,0,0,1-4.81,5.07,15.34,15.34,0,0,1-14.27,0,12.09,12.09,0,0,1-4.89-5.07,16,16,0,0,1-1.75-7.57,15.16,15.16,0,0,1,1.75-7.26,12.7,12.7,0,0,1,4.89-5.07,14,14,0,0,1,7.13-1.81,13.7,13.7,0,0,1,7.07,1.81,12.9,12.9,0,0,1,4.82,5,15,15,0,0,1,1.75,7.32A16.35,16.35,0,0,1,133.59,225.22Z"/><path class="cls-1" d="M198.12,222.28a10.88,10.88,0,0,1-2.45,7.51,8.47,8.47,0,0,1-6.69,2.76,9.75,9.75,0,0,1-5-1.25,8.22,8.22,0,0,1-3.25-3.57,12.36,12.36,0,0,1-1.13-5.45V187.36H160.31v35.17a26.59,26.59,0,0,0,3.64,14,25.54,25.54,0,0,0,10.2,9.57,33.51,33.51,0,0,0,29.72.07,25.13,25.13,0,0,0,9.95-9.52,27.21,27.21,0,0,0,3.57-14.08V187.36H198.12Z"/><path class="cls-1" d="M268.58,191.11a22.67,22.67,0,0,0-4.51-2.68,26.94,26.94,0,0,0-11.26-2.32,29,29,0,0,0-15.4,4.13,28.53,28.53,0,0,0-10.51,11.27,37.17,37.17,0,0,0,0,32.54,28.29,28.29,0,0,0,25.91,15.39,24.81,24.81,0,0,0,11.26-2.56,24.46,24.46,0,0,0,4.89-3.21v4.52h18.89v-69a12.37,12.37,0,0,0-12.37-12.38h-6.9Zm-5.26,39.12a13.52,13.52,0,0,1-7.13,1.82,13.69,13.69,0,0,1-7-1.82,12.27,12.27,0,0,1-4.82-5.07,15.74,15.74,0,0,1-1.69-7.38,14.51,14.51,0,0,1,1.82-7.32,14,14,0,0,1,4.81-5.07,12.9,12.9,0,0,1,7-1.88,13.38,13.38,0,0,1,7,1.81,12.61,12.61,0,0,1,4.7,5,15.5,15.5,0,0,1,1.69,7.32,16.14,16.14,0,0,1-1.69,7.51A12.52,12.52,0,0,1,263.32,230.23Z"/><path class="cls-1" d="M339.55,191.42a21.13,21.13,0,0,0-4.7-3,26,26,0,0,0-11.2-2.32,28.14,28.14,0,0,0-25.16,14.65,33.21,33.21,0,0,0,0,30.66,28.69,28.69,0,0,0,10.27,10.89,27.8,27.8,0,0,0,14.89,4,25.61,25.61,0,0,0,11.2-2.37,22.75,22.75,0,0,0,4.32-2.72v3.72q0,6.51-4.07,10t-11.2,3.51a21.36,21.36,0,0,1-9.57-2l-.09,0a13.4,13.4,0,0,0-15.46,2.29l-3.67,3.64a28.8,28.8,0,0,0,12,9.7,41.82,41.82,0,0,0,17.46,3.44A38.86,38.86,0,0,0,342,271.66a29.29,29.29,0,0,0,12.08-10.83,30.34,30.34,0,0,0,4.37-16.39V187.36H339.55Zm-5.32,36.12a13.34,13.34,0,0,1-7,1.75,12.72,12.72,0,0,1-6.76-1.75,13.65,13.65,0,0,1-6-8.29,14.68,14.68,0,0,1,1.35-9.73,12,12,0,0,1,4.63-4.76,13.4,13.4,0,0,1,6.89-1.75,13,13,0,0,1,6.88,1.75,11.84,11.84,0,0,1,4.44,4.76A13.79,13.79,0,0,1,340.3,216a14.24,14.24,0,0,1-1.57,6.82A11.86,11.86,0,0,1,334.23,227.54Z"/><path class="cls-1" d="M411.39,192.43a22.25,22.25,0,0,0-5.7-3.94,25.28,25.28,0,0,0-11.07-2.38,27.86,27.86,0,0,0-15,4.07,28.91,28.91,0,0,0-10.39,11.26,34.41,34.41,0,0,0-3.82,16.34A33.66,33.66,0,0,0,369.27,234a29.89,29.89,0,0,0,10.45,11.26,27.26,27.26,0,0,0,14.9,4.19,25.61,25.61,0,0,0,11.2-2.37,21.77,21.77,0,0,0,5.57-3.86v5h18.9V187.36h-18.9Zm-12.77,39.62a13.16,13.16,0,0,1-11.83-6.89,16,16,0,0,1,0-14.77,13.25,13.25,0,0,1,4.89-5.07,13.43,13.43,0,0,1,6.94-1.81,14.09,14.09,0,0,1,7.14,1.81,12,12,0,0,1,4.75,5,15.84,15.84,0,0,1,1.63,7.32A14.72,14.72,0,0,1,408.45,228,12.73,12.73,0,0,1,398.62,232.05Z"/><path class="cls-1" d="M453.93,171.7H447v15.66H436.17v16.4H447v44.43h19.28V203.76h11v-16.4h-11v-3.28A12.38,12.38,0,0,0,453.93,171.7Z"/><path class="cls-1" d="M537.37,200.63a28.63,28.63,0,0,0-10.89-10.76,32,32,0,0,0-16-3.88,33.43,33.43,0,0,0-16.65,4.13,30.72,30.72,0,0,0-11.64,11.32,33.19,33.19,0,0,0,.13,32.73,30.48,30.48,0,0,0,12,11.33,36.73,36.73,0,0,0,17.53,4.07A37.62,37.62,0,0,0,526,247a27.36,27.36,0,0,0,10.89-7.94l-3.6-3.56a12,12,0,0,0-13.35-2.3l-.07,0a20.08,20.08,0,0,1-8,1.56,16.54,16.54,0,0,1-8.45-2.07,13.74,13.74,0,0,1-5.51-5.94,16.25,16.25,0,0,1-1-2.55l43.48-.2a25.47,25.47,0,0,0,.82-4.07c.12-1.21.19-2.4.19-3.57A30.79,30.79,0,0,0,537.37,200.63Zm-34.48,2.13a14.13,14.13,0,0,1,7.82-2.13,12.88,12.88,0,0,1,7.07,1.88,11.61,11.61,0,0,1,4.44,5.32,16.64,16.64,0,0,1,.95,3l-26.3.15a15.4,15.4,0,0,1,.89-2.33A14.07,14.07,0,0,1,502.89,202.76Z"/><path class="cls-2" d="M311.44,113.8a10.19,10.19,0,0,0-13-2.73,62.29,62.29,0,0,1-60,0,10.23,10.23,0,0,0-15.12,9,10.31,10.31,0,0,0,5.34,9,82.76,82.76,0,0,0,79.55,0A10.24,10.24,0,0,0,311.44,113.8ZM312,33.72a20.63,20.63,0,0,1-3.79.36,20.08,20.08,0,0,1-20-22.45A49.22,49.22,0,0,0,238.79,96,49.21,49.21,0,0,0,312,33.72Zm-26.18,46a28.77,28.77,0,1,1,11.44-23A28.6,28.6,0,0,1,285.8,79.68Z"/><path class="cls-3" d="M322.16,14a14,14,0,0,1-13.78,14h-.19a14,14,0,0,1-13.95-13.15c0-.27,0-.55,0-.82a14,14,0,0,1,28,0Z"/></g></g></svg>