<svg xmlns="http://www.w3.org/2000/svg" xmlns:xlink="http://www.w3.org/1999/xlink" viewBox="0 0 679.57 147.51"><defs><style>.cls-1{fill:#f7f7f7;}.cls-2{fill:url(#linear-gradient);}.cls-3{fill:#3f5efb;}</style><linearGradient id="linear-gradient" x1="3.89" y1="131.2" x2="98.82" y2="36.27" gradientUnits="userSpaceOnUse"><stop offset="0" stop-color="#3f5efb"/><stop offset="1" stop-color="#ec2f4b"/></linearGradient></defs><title>Asset 11</title><g id="Layer_2" data-name="Layer 2"><g id="Layer_1-2" data-name="Layer 1"><path class="cls-1" d="M193.67,91.2a16.43,16.43,0,0,1-6.49,1.21,14,14,0,0,1-9.07-3.22,13.83,13.83,0,0,1-4.53-10.73,14.14,14.14,0,0,1,1.76-7.1,12.68,12.68,0,0,1,4.86-4.86,13.87,13.87,0,0,1,7-1.76,16.86,16.86,0,0,1,6.24,1.09l.06,0A9.08,9.08,0,0,0,203.4,64l6.83-6.9a30.15,30.15,0,0,0-10.25-7,33.39,33.39,0,0,0-12.8-2.37,34.37,34.37,0,0,0-16.63,4,30.94,30.94,0,0,0-11.71,42.59,29.5,29.5,0,0,0,11.59,11.05,34.33,34.33,0,0,0,16.62,4,31.18,31.18,0,0,0,23.55-9.83l-12-11.89A13.66,13.66,0,0,1,193.67,91.2Z"/><path class="cls-1" d="M214.83,108.07h18.69V41.17a12,12,0,0,0-12-12h-6.69Z"/><path class="cls-1" d="M289,51.76a35.86,35.86,0,0,0-33.07.06,30.5,30.5,0,0,0-11.47,11,29.42,29.42,0,0,0-4.19,15.53,30,30,0,0,0,4.25,15.78,31.22,31.22,0,0,0,11.53,11.17,35.12,35.12,0,0,0,33,0,31.37,31.37,0,0,0,11.53-11.11,29.86,29.86,0,0,0,4.25-15.84,29.41,29.41,0,0,0-4.25-15.59A30.3,30.3,0,0,0,289,51.76Zm-4.86,34a11.43,11.43,0,0,1-4.67,4.91,14.91,14.91,0,0,1-13.83,0,11.82,11.82,0,0,1-4.74-4.91,15.52,15.52,0,0,1-1.7-7.34,14.63,14.63,0,0,1,1.7-7,12.34,12.34,0,0,1,4.74-4.92,13.53,13.53,0,0,1,6.91-1.76,13.24,13.24,0,0,1,6.86,1.76,12.55,12.55,0,0,1,4.67,4.86,14.42,14.42,0,0,1,1.7,7.1A15.86,15.86,0,0,1,284.18,85.8Z"/><path class="cls-1" d="M346.74,83a10.58,10.58,0,0,1-2.36,7.28,8.25,8.25,0,0,1-6.5,2.67A9.39,9.39,0,0,1,333,91.68a7.79,7.79,0,0,1-3.15-3.46,11.86,11.86,0,0,1-1.1-5.27V49.09H310.09v34.1a25.8,25.8,0,0,0,3.52,13.53A24.88,24.88,0,0,0,323.5,106a32.51,32.51,0,0,0,28.83.06A24.25,24.25,0,0,0,362,96.84a26.38,26.38,0,0,0,3.46-13.65V49.09H346.74Z"/><path class="cls-1" d="M415.07,52.72a22,22,0,0,0-4.37-2.6,26.21,26.21,0,0,0-10.92-2.25,28,28,0,0,0-14.93,4,27.66,27.66,0,0,0-10.2,10.92A33.45,33.45,0,0,0,371,78.58a33.43,33.43,0,0,0,3.64,15.77,27.42,27.42,0,0,0,25.13,14.93,24.07,24.07,0,0,0,10.92-2.49,23.6,23.6,0,0,0,4.73-3.11v4.39h18.33V41.17a12,12,0,0,0-12-12h-6.69ZM410,90.65a14.23,14.23,0,0,1-13.71,0,11.91,11.91,0,0,1-4.68-4.91,15.35,15.35,0,0,1-1.64-7.16,14,14,0,0,1,1.77-7.1,13.63,13.63,0,0,1,4.67-4.92,12.56,12.56,0,0,1,6.79-1.82A12.92,12.92,0,0,1,410,66.5a12.25,12.25,0,0,1,4.55,4.86,15,15,0,0,1,1.64,7.1,15.62,15.62,0,0,1-1.64,7.28A12.13,12.13,0,0,1,410,90.65Z"/><path class="cls-1" d="M483.88,53a20.46,20.46,0,0,0-4.56-2.9,25.23,25.23,0,0,0-10.86-2.25,27.32,27.32,0,0,0-24.39,14.2A30.21,30.21,0,0,0,440.43,77a30.33,30.33,0,0,0,3.64,14.8A27.77,27.77,0,0,0,454,102.36a27,27,0,0,0,14.44,3.89,24.67,24.67,0,0,0,10.86-2.31,21.24,21.24,0,0,0,4.19-2.64v3.61q0,6.32-3.94,9.71T468.71,118a20.85,20.85,0,0,1-9.29-1.94l-.08,0a13,13,0,0,0-15,2.22l-3.56,3.52a28,28,0,0,0,11.59,9.41,40.63,40.63,0,0,0,16.93,3.33,37.55,37.55,0,0,0,16.93-3.7A28.33,28.33,0,0,0,498,120.32a29.37,29.37,0,0,0,4.25-15.89V49.09H483.88Zm-5.16,35a12.86,12.86,0,0,1-6.74,1.7,12.27,12.27,0,0,1-6.55-1.7,13.26,13.26,0,0,1-5.8-8,14.21,14.21,0,0,1,1.31-9.44A11.7,11.7,0,0,1,465.43,66a12.9,12.9,0,0,1,6.67-1.7,12.54,12.54,0,0,1,6.68,1.7,11.6,11.6,0,0,1,4.31,4.61,13.45,13.45,0,0,1,1.51,6.31,13.86,13.86,0,0,1-1.51,6.61A11.58,11.58,0,0,1,478.72,88Z"/><path class="cls-1" d="M553.53,54A21.3,21.3,0,0,0,548,50.18a24.42,24.42,0,0,0-10.74-2.31,27,27,0,0,0-14.5,4A27.89,27.89,0,0,0,512.7,62.74,33.24,33.24,0,0,0,509,78.58a32.52,32.52,0,0,0,3.7,15.71,28.79,28.79,0,0,0,10.13,10.92,26.39,26.39,0,0,0,14.44,4.07A24.67,24.67,0,0,0,548.13,107a20.67,20.67,0,0,0,5.4-3.73v4.83h18.33v-59H553.53ZM541.16,92.41a12.72,12.72,0,0,1-11.47-6.67,15.44,15.44,0,0,1,0-14.32,12.87,12.87,0,0,1,4.73-4.92,13,13,0,0,1,6.74-1.76,13.55,13.55,0,0,1,6.91,1.76,11.61,11.61,0,0,1,4.61,4.86,15.31,15.31,0,0,1,1.58,7.1,14.27,14.27,0,0,1-3.58,10.07A12.31,12.31,0,0,1,541.16,92.41Z"/><path class="cls-1" d="M594.78,33.9h-6.69V49.09H577.56V65h10.53v43.09h18.69V65h10.65V49.09H606.78V45.9A12,12,0,0,0,594.78,33.9Z"/><path class="cls-1" d="M675.69,62a27.86,27.86,0,0,0-10.56-10.44,31.2,31.2,0,0,0-15.54-3.76,32.5,32.5,0,0,0-16.14,4,29.74,29.74,0,0,0-11.28,11A30.2,30.2,0,0,0,618,78.46a30.39,30.39,0,0,0,4.25,16,29.5,29.5,0,0,0,11.65,11,35.56,35.56,0,0,0,17,3.94,36.41,36.41,0,0,0,13.71-2.49,26.32,26.32,0,0,0,10.56-7.7l-3.49-3.45a11.67,11.67,0,0,0-12.94-2.23l-.07,0a19.31,19.31,0,0,1-7.77,1.52,16.08,16.08,0,0,1-8.19-2,13.39,13.39,0,0,1-5.34-5.77,15.14,15.14,0,0,1-1-2.46l42.16-.21a24.47,24.47,0,0,0,.79-3.94,33.85,33.85,0,0,0,.18-3.46A29.94,29.94,0,0,0,675.69,62ZM642.25,64A13.77,13.77,0,0,1,649.84,62a12.48,12.48,0,0,1,6.85,1.82A11.27,11.27,0,0,1,661,68.93a16.71,16.71,0,0,1,.92,2.9l-25.5.14a14.75,14.75,0,0,1,.86-2.25A13.71,13.71,0,0,1,642.25,64Z"/><path class="cls-2" d="M97.71,120.57A10.79,10.79,0,0,0,84,117.68a66,66,0,0,1-63.57,0,10.83,10.83,0,0,0-16,9.48A10.91,10.91,0,0,0,10,136.73a87.74,87.74,0,0,0,84.29,0A10.86,10.86,0,0,0,97.71,120.57Zm.57-84.85A21.32,21.32,0,0,1,73,14.8a20.26,20.26,0,0,1,.15-2.48,52.16,52.16,0,0,0-52.37,89.39,52.15,52.15,0,0,0,77.55-66ZM70.55,84.43A30.49,30.49,0,1,1,82.67,60.1,30.39,30.39,0,0,1,70.55,84.43Z"/><path class="cls-3" d="M109.07,14.8a14.8,14.8,0,0,1-14.6,14.8h-.21A14.81,14.81,0,0,1,79.48,15.67c0-.28,0-.58,0-.87a14.81,14.81,0,0,1,29.61,0Z"/></g></g></svg>