<?xml version="1.0" encoding="UTF-8"?>
<svg id="Layer_1" xmlns="http://www.w3.org/2000/svg" xmlns:xlink="http://www.w3.org/1999/xlink" version="1.1" viewBox="0 0 1000 1000">
  <!-- Generator: Adobe Illustrator 30.2.1, SVG Export Plug-In . SVG Version: 2.1.1 Build 1)  -->
  <defs>
    <style>
      .st0 {
        fill: url(#linear-gradient);
      }

      .st1 {
        fill: #3f5efb;
      }
    </style>
    <linearGradient id="linear-gradient" x1="324.8" y1="499.43" x2="660.04" y2="499.43" gradientUnits="userSpaceOnUse">
      <stop offset="0" stop-color="#11998e"/>
      <stop offset="1" stop-color="#40e0d0"/>
    </linearGradient>
  </defs>
  <path class="st0" d="M645.26,658.76c-1.22-6.78-4.43-13.27-9.7-18.54-12.88-12.88-33.64-13.78-47.36-1.77-10.22,8.93-20.47,16.48-30.01,20.69-3.15-2.35-7.23-5.85-10.28-8.48-3.12-2.67-6.39-5.46-9.86-8.23-12.27-9.77-27.05-18.89-45.62-18.89s-33.35,9.13-45.62,18.86c-3.5,2.76-6.78,5.59-9.9,8.26-3.02,2.63-7.13,6.14-10.28,8.48-9.51-4.21-19.76-11.76-30.01-20.69-6.49-5.69-14.55-8.48-22.62-8.48-9,0-17.96,3.47-24.74,10.25-5.24,5.24-8.48,11.73-9.67,18.47-2.09,11.53,1.67,23.9,11.18,32.23,18.86,16.48,39.42,30.52,62.2,37.21,5.17,1.54,10.15,2.22,14.91,2.22,15.13,0,28.21-6.72,39.04-14.49,5.75-4.11,10.86-8.51,15.33-12.34,2.99-2.54,7-5.98,10.19-8.35,3.18,2.38,7.16,5.82,10.15,8.35,4.47,3.82,9.57,8.22,15.33,12.34,14.27,10.18,32.39,18.6,53.95,12.27,22.78-6.68,43.34-20.72,62.2-37.21,9.51-8.32,13.27-20.63,11.21-32.16ZM659.72,425.6c-1.51-24.35-8.26-47.33-19.15-67.79-4.18.8-8.51,1.22-12.92,1.22-37.75,0-68.47-30.68-68.47-68.44,0-2.7.16-5.37.45-7.97-20.56-9.06-43.31-14.11-67.21-14.11-90.99,0-165.27,72.87-167.56,163.31-.03,1.41-.06,2.86-.06,4.3.32,92.15,75.38,167.04,167.62,167.04s167.3-74.89,167.62-167.04v-.58c0-3.34-.1-6.65-.32-9.96ZM590.38,438.1l-.1,2.51c-2.63,51.66-45.56,92.92-97.87,92.92s-95.23-41.25-97.87-92.92c-.03-.84-.06-1.67-.1-2.51-.03-.64-.03-1.32-.03-1.96,0-.83,0-1.67.03-2.54,1.03-53.14,44.56-96.03,97.96-96.03s96.93,42.89,97.96,96.03c.03.87.03,1.7.03,2.54,0,.64,0,1.32-.03,1.96Z"/>
  <path class="st1" d="M675.2,290.59c0,25.9-20.69,46.94-46.46,47.52-.16.03-.29.03-.45.03h-.64c-25.35,0-46.04-19.79-47.49-44.76,0-.23-.03-.42-.03-.64-.03-.71-.06-1.45-.06-2.15,0-26.28,21.3-47.55,47.58-47.55s47.55,21.27,47.55,47.55Z"/>
</svg>