<svg xmlns="http://www.w3.org/2000/svg" xmlns:xlink="http://www.w3.org/1999/xlink" viewBox="0 0 128.78 174.18"><defs><style>.cls-1{fill:url(#linear-gradient);}.cls-2{fill:#3f5efb;}</style><linearGradient id="linear-gradient" x1="4.59" y1="154.92" x2="116.69" y2="42.82" gradientUnits="userSpaceOnUse"><stop offset="0" stop-color="#3f5efb"/><stop offset="1" stop-color="#ec2f4b"/></linearGradient></defs><title>Asset 4</title><g id="Layer_2" data-name="Layer 2"><g id="Layer_1-2" data-name="Layer 1"><path class="cls-1" d="M115.38,142.37A12.77,12.77,0,0,0,99.13,139a77.88,77.88,0,0,1-75.06,0,12.8,12.8,0,0,0-12.23,22.5,103.6,103.6,0,0,0,99.53,0A12.82,12.82,0,0,0,115.38,142.37Zm.67-100.19a24.73,24.73,0,0,1-4.74.45A25.19,25.19,0,0,1,86.14,17.48a25.76,25.76,0,0,1,.17-2.93A61.58,61.58,0,0,0,24.48,120.09a61.57,61.57,0,0,0,91.57-77.91ZM83.3,99.69A36,36,0,1,1,97.62,71,35.86,35.86,0,0,1,83.3,99.69Z"/><path class="cls-2" d="M128.78,17.48A17.46,17.46,0,0,1,111.55,35h-.24A17.48,17.48,0,0,1,93.85,18.5c0-.33,0-.68,0-1a17.48,17.48,0,1,1,35,0Z"/></g></g></svg>